<?xml version="1.0" encoding="UTF-8"?><svg version="1.1" width="30px" height="30px" viewBox="0 0 30.0 30.0" xmlns="http://www.w3.org/2000/svg" xmlns:xlink="http://www.w3.org/1999/xlink"><defs><clipPath id="i0"><path d="M1600,0 L1600,1946 L0,1946 L0,0 L1600,0 Z"></path></clipPath><clipPath id="i1"><path d="M14.9918733,0 C18.997261,0 22.7622569,1.56086151 25.5966001,4.39522082 C28.4331645,7.23180142 29.9977131,10.997713 29.9977131,15 C29.9977131,19.0054067 28.4368618,22.770421 25.6025197,25.6047792 C22.765149,28.442166 18.945965,30 14.9859537,30 C12.9861606,30 11.0068518,29.60105 9.16085754,28.8192546 L8.73727676,28.6320516 L8.44910723,28.494 L8.33119753,28.5704651 C6.95100167,29.4204722 5.5192246,29.8486416 4.10548128,29.9477089 L3.77958463,29.9647707 L3.45451835,29.9704017 C2.9972622,29.9704017 2.57692142,29.9352335 2.19317018,29.8755383 C1.19528043,29.7196172 0.420312258,28.9386602 0.264404574,27.9408454 C0.117362162,26.9997686 0.560985184,26.0797674 1.3712658,25.6003516 L1.70127894,25.4214326 C2.10216469,25.1833553 2.46948977,24.820215 2.79657687,24.3602043 L2.93427403,24.1572082 L3.01510723,24.025 L2.78522269,23.7136085 C-1.29692134,18.0125821 -0.860800386,10.1443666 3.88922933,4.91747628 L4.13447308,4.65400196 L4.38714651,4.39522082 C7.22148966,1.56086151 10.9864856,0 14.9918733,0 Z M14.9918733,2 C11.5171397,2 8.2607889,3.34999153 5.8013641,5.80943035 C1.14289585,10.4679252 0.727423053,17.8939158 4.7684714,23.0245787 L4.98146654,23.2878849 L5.39744358,23.7886704 L5.10782658,24.3717185 C4.45231514,25.6913741 3.57633888,26.7369565 2.41178086,27.3095854 C2.28579785,27.3718532 2.21955441,27.4984958 2.24042891,27.6320933 C2.26258055,27.7738646 2.36622636,27.8783114 2.50125578,27.8994101 C2.78642897,27.9437706 3.10473189,27.9704017 3.45451835,27.9704017 C4.79933228,27.9704017 6.17792137,27.6029401 7.51024266,26.7219773 L7.79500273,26.5252866 L8.30272891,26.1593993 L8.85375076,26.4561051 C10.7492118,27.4767437 12.8534474,28 14.9859537,28 C18.4193668,28 21.7287897,26.6500961 24.1883021,24.1905697 C26.647728,21.7311297 27.9977131,18.4747573 27.9977131,15 C27.9977131,11.528906 26.6444127,8.27147458 24.1823825,5.80943035 C21.7229577,3.34999153 18.4666069,2 14.9918733,2 Z M11.0001072,14 C11.552392,14 12.0001072,14.4477153 12.0001072,15 C12.0001072,15.5522847 11.552392,16 11.0001072,16 C10.4478225,16 10.0001072,15.5522847 10.0001072,15 C10.0001072,14.4477153 10.4478225,14 11.0001072,14 Z M15.0001072,14 C15.552392,14 16.0001072,14.4477153 16.0001072,15 C16.0001072,15.5522847 15.552392,16 15.0001072,16 C14.4478225,16 14.0001072,15.5522847 14.0001072,15 C14.0001072,14.4477153 14.4478225,14 15.0001072,14 Z M19.0001072,14 C19.552392,14 20.0001072,14.4477153 20.0001072,15 C20.0001072,15.5522847 19.552392,16 19.0001072,16 C18.4478225,16 18.0001072,15.5522847 18.0001072,15 C18.0001072,14.4477153 18.4478225,14 19.0001072,14 Z"></path></clipPath></defs><g transform="translate(-815.0 -1068.0)"><g clip-path="url(#i0)"><g transform="translate(815.0 150.0)"><g transform="translate(0.0 886.0)"><g transform="translate(0.0 32.0)"><g transform="translate(-0.0001072295686981306 0.0)"><g clip-path="url(#i1)"><polygon points="0,0 29.9977131,0 29.9977131,30 0,30 0,0" stroke="none" fill="#FF0006"></polygon></g></g></g></g></g></g></g></svg>