<?xml version="1.0" encoding="UTF-8"?><svg version="1.1" width="16px" height="16px" viewBox="0 0 16.0 16.0" xmlns="http://www.w3.org/2000/svg" xmlns:xlink="http://www.w3.org/1999/xlink"><defs><clipPath id="i0"><path d="M1600,0 L1600,1946 L0,1946 L0,0 L1600,0 Z"></path></clipPath><clipPath id="i1"><path d="M6.50010953,13.0001095 C7.32853665,13.0001095 8.00010953,13.6716824 8.00010953,14.5001095 C8.00010953,15.3285367 7.32853665,16.0001095 6.50010953,16.0001095 C5.6716824,16.0001095 5.00010953,15.3285367 5.00010953,14.5001095 C5.00010953,13.6716824 5.6716824,13.0001095 6.50010953,13.0001095 Z M11.5001095,13.0001095 C12.3285367,13.0001095 13.0001095,13.6716824 13.0001095,14.5001095 C13.0001095,15.3285367 12.3285367,16.0001095 11.5001095,16.0001095 C10.6716824,16.0001095 10.0001095,15.3285367 10.0001095,14.5001095 C10.0001095,13.6716824 10.6716824,13.0001095 11.5001095,13.0001095 Z M6.50010953,14.0001095 C6.22396715,14.0001095 6.00010953,14.2239672 6.00010953,14.5001095 C6.00010953,14.7762519 6.22396715,15.0001095 6.50010953,15.0001095 C6.7762519,15.0001095 7.00010953,14.7762519 7.00010953,14.5001095 C7.00010953,14.2239672 6.7762519,14.0001095 6.50010953,14.0001095 Z M11.5001095,14.0001095 C11.2239672,14.0001095 11.0001095,14.2239672 11.0001095,14.5001095 C11.0001095,14.7762519 11.2239672,15.0001095 11.5001095,15.0001095 C11.7762519,15.0001095 12.0001095,14.7762519 12.0001095,14.5001095 C12.0001095,14.2239672 11.7762519,14.0001095 11.5001095,14.0001095 Z M0.723716326,0.0528959328 L2.72371633,1.05289593 C2.86172216,1.12189885 2.96014008,1.25075255 2.99039987,1.40205146 L3.31001148,3.00010953 L15.5001095,3.00010953 C15.8090792,3.00010953 16.0441008,3.27754317 15.9933065,3.58230902 L14.9933065,9.58230902 C14.9531242,9.82340301 14.7445291,10.0001095 14.5001095,10.0001095 L4.71001148,10.0001095 L4.91001148,11.0001095 L13.5001095,11.0001095 C13.7762519,11.0001095 14.0001095,11.2239672 14.0001095,11.5001095 C14.0001095,11.7762519 13.7762519,12.0001095 13.5001095,12.0001095 L4.50010953,12.0001095 C4.26176902,12.0001095 4.05656161,11.8318797 4.00981919,11.5981676 L2.0577778,1.83796066 L0.276502731,0.947323124 C0.0295134818,0.823828499 -0.0705986916,0.523491979 0.0528959328,0.276502731 C0.176390557,0.0295134818 0.476727077,-0.0705986916 0.723716326,0.0528959328 Z M14.9098793,4.00010953 L3.51001148,4.00010953 L4.51001148,9.00010953 L14.076546,9.00010953 L14.9098793,4.00010953 Z M11.5001095,7.00010953 C11.7762519,7.00010953 12.0001095,7.22396715 12.0001095,7.50010953 C12.0001095,7.7762519 11.7762519,8.00010953 11.5001095,8.00010953 L6.50010953,8.00010953 C6.22396715,8.00010953 6.00010953,7.7762519 6.00010953,7.50010953 C6.00010953,7.22396715 6.22396715,7.00010953 6.50010953,7.00010953 L11.5001095,7.00010953 Z M12.5001095,5.00010953 C12.7762519,5.00010953 13.0001095,5.22396715 13.0001095,5.50010953 C13.0001095,5.7762519 12.7762519,6.00010953 12.5001095,6.00010953 L5.50010953,6.00010953 C5.22396715,6.00010953 5.00010953,5.7762519 5.00010953,5.50010953 C5.00010953,5.22396715 5.22396715,5.00010953 5.50010953,5.00010953 L12.5001095,5.00010953 Z"></path></clipPath></defs><g transform="translate(-990.0 -973.0)"><g clip-path="url(#i0)"><g transform="translate(815.0 150.0)"><g transform="translate(0.0 806.0)"><g transform="translate(150.0 0.0)"><g transform="translate(25.0 17.0)"><g clip-path="url(#i1)"><polygon points="3.90798505e-14,-2.66453526e-15 16.0002333,-2.66453526e-15 16.0002333,16.0001095 3.90798505e-14,16.0001095 3.90798505e-14,-2.66453526e-15" stroke="none" fill="#DC0020" opacity="50%"></polygon></g></g></g></g></g></g></g></svg>