<?xml version="1.0" encoding="UTF-8"?><svg version="1.1" width="30px" height="30px" viewBox="0 0 30.0 30.0" xmlns="http://www.w3.org/2000/svg" xmlns:xlink="http://www.w3.org/1999/xlink"><defs><clipPath id="i0"><path d="M1600,0 L1600,1946 L0,1946 L0,0 L1600,0 Z"></path></clipPath><clipPath id="i1"><path d="M21.5011626,0 C21.8684004,0 22.2206195,0.133310376 22.4957781,0.371473487 L22.6088043,0.479879979 L29.5814655,7.89236538 C29.8170191,8.14291253 29.9607944,8.46438674 29.9930577,8.80415877 L30,8.95074219 L30,26.8479922 C30,28.5226291 28.7048111,29.9018603 27.0675062,29.9949884 L26.890815,30 L11.109185,30 C9.44853724,30 8.09620211,28.6778929 8.00491223,27.0250948 L8,26.8467891 L8,23 L2,23 C0.945638205,23 0.0818348781,22.1841222 0.00548573643,21.1492623 L0,21 L0,12 C0,10.9456382 0.815877791,10.0818349 1.85073766,10.0054857 L2,10 L8,10 L8,3.15698437 C8,1.48019212 9.29469812,0.098328369 10.932443,0.00502122864 L11.109185,0 L21.5011626,0 Z M21.293,2 L11.109185,2 C10.5439298,2 10.0675943,2.44859423 10.0065951,3.03038999 L10,3.15698437 L10,10 L19,10 C20.0543618,10 20.9181651,10.8158778 20.9945143,11.8507377 L21,12 L21,21 C21,22.0543618 20.1841222,22.9181651 19.1492623,22.9945143 L19,23 L10,23 L10,26.8467891 C10,27.443707 10.4383016,27.930953 10.9894688,27.9932661 L11.109185,28 L26.890815,28 C27.4565676,28 27.9324721,27.5529158 27.9934115,26.9739581 L28,26.8479922 L28,9.13 L21.293,2 Z M19,12 L2,12 L2,21 L19,21 L19,12 Z M5.81679074,14.0009262 L6.16274541,14.0083356 C6.47703276,14.0194497 6.69632012,14.041678 6.82062499,14.0750204 C7.1071095,14.1500408 7.34700923,14.3132057 7.54026508,14.5644561 C7.73352093,14.8157064 7.83017842,15.1402627 7.83023754,15.5381841 C7.83023754,15.8451234 7.77454864,16.1032314 7.66311172,16.3123899 C7.55167481,16.5215484 7.41014697,16.6858366 7.23846909,16.8051953 C7.06679121,16.9246131 6.89227568,17.0035944 6.7149225,17.0422574 C6.51407002,17.0820633 6.23821193,17.1052834 5.88734822,17.1119177 L5.66782932,17.113908 L5.00955342,17.113908 L5.00955342,19 L4,19 L4,14 L5.81679074,14.0009262 Z M10.5007035,14 C10.9167741,14 11.2339998,14.0318053 11.4522624,14.0954751 C11.7455455,14.1819052 11.9968549,14.3353749 12.2060135,14.5559431 C12.415172,14.7765113 12.574376,15.046502 12.6835073,15.3659742 C12.7926387,15.6854464 12.8472043,16.0793478 12.8472043,16.5477376 C12.8472043,16.9592561 12.7960675,17.3139624 12.6937347,17.6118567 C12.5686416,17.9756671 12.3901652,18.2700734 12.1582463,18.4951937 C11.9831987,18.6657484 11.7467278,18.7987633 11.4488336,18.8942384 C11.2705818,18.9506603 11.044317,18.9844946 10.7700089,18.9957714 L10.5552692,19 L8.655521,19 L8.655521,14 L10.5007035,14 Z M17.1377916,14 L17.1377916,14.8458564 L14.7196401,14.8458564 L14.7196401,16.0293342 L16.8069688,16.0293342 L16.8069688,16.8751907 L14.7196401,16.8751907 L14.7196401,19 L13.7100867,19 L13.7100867,14 L17.1377916,14 Z M10.1186847,14.8458564 L9.66507443,14.8458564 L9.66507443,18.1575724 L10.4188254,18.1575724 C10.7007579,18.1575724 10.9043002,18.1416697 11.0293342,18.1098053 C11.1930312,18.0688958 11.3288837,17.9995507 11.4368918,17.90177 C11.5448999,17.8040484 11.6329853,17.643189 11.7012072,17.419192 C11.769429,17.1951949 11.80354,16.8899701 11.80354,16.5034584 C11.80354,16.1168876 11.769429,15.8201757 11.7012072,15.6132637 C11.6329853,15.4063516 11.5375102,15.2449602 11.4147227,15.1289712 C11.2919352,15.0129823 11.1361599,14.934533 10.9474562,14.8936236 C10.8467871,14.8708632 10.6770469,14.8562467 10.4383,14.8497523 L10.1186847,14.8458564 Z M5.49727467,14.8458564 L5.00955342,14.8458564 L5.00955342,16.2646819 L5.5620677,16.2646819 C5.95998912,16.2646819 6.22595978,16.2385519 6.36015702,16.1862327 C6.49435426,16.1339135 6.59952469,16.0520945 6.67566833,15.9406576 C6.75181196,15.8292207 6.78994289,15.6996347 6.78988398,15.5518403 C6.78988398,15.3699942 6.73644135,15.2198943 6.6295565,15.1016588 C6.52273077,14.9834234 6.38741029,14.9095262 6.2237133,14.8799674 L6.10137271,14.8641921 C6.0272249,14.8575203 5.93361079,14.8526716 5.8205304,14.8496422 L5.49727467,14.8458564 Z"></path></clipPath></defs><g transform="translate(-815.0 -1160.0)"><g clip-path="url(#i0)"><g transform="translate(815.0 150.0)"><g transform="translate(0.0 978.0)"><g transform="translate(0.0 32.0)"><g clip-path="url(#i1)"><polygon points="0,0 30,0 30,30 0,30 0,0" stroke="none" fill="#FF0006"></polygon></g></g></g></g></g></g></svg>