<?xml version="1.0" encoding="UTF-8"?>
<svg version="1.1" width="18px" height="14px" viewBox="0 0 18.0 14.0" xmlns="http://www.w3.org/2000/svg" xmlns:xlink="http://www.w3.org/1999/xlink"><defs><clipPath id="i0"><path d="M1600,0 L1600,1946 L0,1946 L0,0 L1600,0 Z"></path></clipPath><clipPath id="i1"><path d="M11,0 C11.5522847,0 12,0.44771525 12,1 L12,3 L14,3 C14.4196764,3 14.8175822,3.17563752 15.0997822,3.47994502 L15.2,3.6 L17.7,6.93333333 C17.8622777,7.14970355 17.9624259,7.4050711 17.9913009,7.6720047 L18,7.83333333 L18,10.5 C18,11.2796961 17.4051119,11.9204487 16.64446,11.9931334 L16.5,12 L15.9496976,12.0014429 C15.7175052,13.1418441 14.7089691,14 13.5,14 C12.2910309,14 11.2824948,13.1418441 11.0503024,12.0014429 L7.94969761,12.0014429 C7.71750521,13.1418441 6.70896913,14 5.5,14 C4.29103087,14 3.28249479,13.1418441 3.05030239,12.0014429 L1,12 C0.44771525,12 0,11.5522847 0,11 L0,1 C0,0.44771525 0.44771525,0 1,0 L11,0 Z M5.5,10 C4.67157288,10 4,10.6715729 4,11.5 C4,12.3284271 4.67157288,13 5.5,13 C6.32842712,13 7,12.3284271 7,11.5 C7,10.6715729 6.32842712,10 5.5,10 Z M13.5,10 C12.6715729,10 12,10.6715729 12,11.5 C12,12.3284271 12.6715729,13 13.5,13 C14.3284271,13 15,12.3284271 15,11.5 C15,10.6715729 14.3284271,10 13.5,10 Z M14,4 L12,4 L12,9.49978306 C12.4178676,9.18595904 12.9372173,9 13.5,9 C14.7093254,9 15.7180997,9.85866183 15.9499027,10.9995655 L16.5,11 C16.7454599,11 16.9496084,10.8231248 16.9919443,10.5898756 L17,10.5 L17,7.83333333 C17,7.7521945 16.9802625,7.67269722 16.9430094,7.60150728 L16.9,7.53333333 L14.4,4.2 C14.3244582,4.09927766 14.2145056,4.03171107 14.0929684,4.00871332 L14,4 Z M11,1 L1,1 L1,11 L3.05009729,10.9995655 C3.28190033,9.85866183 4.29067455,9 5.5,9 C6.70932545,9 7.71809967,9.85866183 7.94990271,10.9995655 L11,10.999 L11,1 Z"></path></clipPath></defs><g transform="translate(-815.0 -353.0)"><g clip-path="url(#i0)"><g transform="translate(815.0 322.0)"><g transform="translate(0.0 26.0)"><g transform="translate(0.0 5.0)"><g clip-path="url(#i1)"><polygon points="0,0 18,0 18,14 0,14 0,0" stroke="none" fill="#DC0020"></polygon></g></g></g></g></g></g></svg>